<?xml version="1.0" encoding="UTF-8"?>
<svg xmlns="http://www.w3.org/2000/svg"
     width="1600" height="1200"
     viewBox="0 0 16000 12000">
  <g fill="rgb(0,0,0)" stroke="rgb(0,0,0)" stroke-width="0">
    <path d="M0 6000 l0 -6000 8000 0 8000 0 0 6000 0 6000 -8000 0 -8000 0 0
-6000z m9720 5110 c791 -28 1117 -73 1520 -212 417 -144 723 -333 1024 -634
351 -351 573 -748 707 -1264 130 -499 149 -888 149 -3000 0 -2112 -19 -2501
-149 -3000 -134 -516 -356 -913 -707 -1264 -351 -351 -748 -573 -1264 -707
-500 -130 -887 -149 -3000 -149 -2113 0 -2500 19 -3000 149 -516 134 -913 356
-1264 707 -351 351 -573 748 -707 1264 -130 499 -149 888 -149 3000 0 2112 19
2501 149 3000 134 516 356 913 707 1264 301 301 607 490 1024 634 393 135 740
185 1475 211 330 12 3156 13 3485 1z"/>
  </g>
  <g fill="rgb(0,0,0)" stroke="rgb(0,0,0)" stroke-width="0">
    <path d="M6490 10189 c-923 -22 -1268 -76 -1647 -259 -182 -87 -287 -163 -449
-325 -208 -207 -328 -404 -423 -690 -144 -437 -171 -883 -171 -2915 0 -1747
22 -2302 106 -2680 56 -252 156 -495 281 -685 87 -130 309 -354 441 -443 181
-123 440 -230 692 -286 379 -84 927 -106 2680 -106 1753 0 2301 22 2680 106
252 56 511 163 692 286 132 89 354 313 441 443 125 190 225 433 281 685 84
378 106 933 106 2680 0 1747 -22 2302 -106 2680 -56 252 -156 495 -281 685
-87 130 -309 354 -441 443 -181 123 -440 230 -692 286 -385 85 -946 106 -2750
104 -624 -1 -1272 -5 -1440 -9z m4390 -861 c95 -22 209 -88 286 -165 120 -119
178 -264 177 -438 0 -171 -58 -311 -178 -431 -115 -115 -238 -171 -400 -181
-186 -11 -337 47 -471 181 -134 134 -192 285 -181 471 10 154 62 277 167 389
150 159 377 226 600 174z m-2585 -713 c784 -91 1462 -505 1900 -1160 581 -870
581 -2040 0 -2910 -180 -268 -400 -498 -655 -681 -916 -660 -2164 -660 -3080
0 -979 704 -1351 1989 -903 3116 355 893 1171 1518 2133 1634 157 19 446 19
605 1z"/>
  </g>
  <g fill="rgb(0,0,0)" stroke="rgb(0,0,0)" stroke-width="0">
    <path d="M7840 7698 c-730 -68 -1345 -612 -1504 -1328 -85 -387 -37 -779 140
-1133 269 -535 787 -883 1396 -937 404 -36 842 96 1173 355 381 297 612 726
655 1218 36 404 -96 840 -356 1173 -292 375 -724 610 -1204 653 -129 12 -165
12 -300 -1z"/>
  </g>
  <g fill="rgb(196,84,129)" stroke="rgb(196,84,129)" stroke-width="0">
    <path d="M6235 11109 c-735 -26 -1082 -76 -1475 -211 -417 -144 -723 -333
-1024 -634 -351 -351 -573 -748 -707 -1264 -130 -499 -149 -888 -149 -3000 0
-2112 19 -2501 149 -3000 134 -516 356 -913 707 -1264 351 -351 748 -573 1264
-707 500 -130 887 -149 3000 -149 2113 0 2500 19 3000 149 516 134 913 356
1264 707 351 351 573 748 707 1264 130 499 149 888 149 3000 0 2112 -19 2501
-149 3000 -134 516 -356 913 -707 1264 -301 301 -607 490 -1024 634 -403 139
-729 184 -1520 212 -329 12 -3155 11 -3485 -1z m3220 -919 c682 -17 968 -39
1225 -96 252 -56 511 -163 692 -286 132 -89 354 -313 441 -443 125 -190 225
-433 281 -685 84 -378 106 -933 106 -2680 0 -1747 -22 -2302 -106 -2680 -56
-252 -156 -495 -281 -685 -87 -130 -309 -354 -441 -443 -181 -123 -440 -230
-692 -286 -379 -84 -927 -106 -2680 -106 -1753 0 -2301 22 -2680 106 -252 56
-511 163 -692 286 -132 89 -354 313 -441 443 -125 190 -225 433 -281 685 -84
378 -106 933 -106 2680 0 2032 27 2478 171 2915 95 286 215 483 423 690 162
162 267 238 449 325 379 183 724 237 1647 259 463 11 2523 12 2965 1z"/>
  </g>
  <g fill="rgb(196,84,129)" stroke="rgb(196,84,129)" stroke-width="0">
    <path d="M10630 9339 c-175 -27 -351 -147 -438 -300 -101 -179 -107 -402 -16
-589 51 -104 170 -223 274 -274 187 -91 409 -85 590 17 128 72 248 231 286
378 21 77 23 224 5 299 -41 175 -165 331 -322 407 -46 22 -104 46 -129 51 -72
17 -180 21 -250 11z"/>
  </g>
  <g fill="rgb(196,84,129)" stroke="rgb(196,84,129)" stroke-width="0">
    <path d="M7690 8614 c-811 -98 -1522 -556 -1944 -1253 -502 -828 -502 -1894 0
-2722 221 -366 527 -672 893 -893 828 -502 1894 -502 2722 0 1119 677 1571
2070 1063 3281 -331 791 -1055 1384 -1894 1552 -254 51 -592 65 -840 35z m450
-915 c480 -43 912 -278 1204 -653 440 -564 481 -1327 105 -1944 -232 -380
-638 -668 -1079 -766 -251 -55 -489 -55 -740 0 -641 142 -1152 653 -1294 1294
-85 387 -37 779 140 1133 229 456 657 790 1154 901 187 41 333 52 510 35z"/>
  </g>
</svg>